<?xml version="1.0" encoding="UTF-8"?>
<svg viewBox="0 0 216.83936 266.64108" xmlns="http://www.w3.org/2000/svg">
 <defs>
  <linearGradient id="c" x1="-1569.1" x2="-1501" y1="-22.608" y2="-85.547" gradientTransform="matrix(1 .21688 0 1 1961 970.87)" gradientUnits="userSpaceOnUse">
   <stop stop-color="#d3d7cf" offset="0"/>
   <stop stop-color="#fff" stop-opacity="0" offset="1"/>
  </linearGradient>
  <linearGradient id="b" x2="0" y1="14.861" y2="-52.911" gradientUnits="userSpaceOnUse">
   <stop stop-color="#740000" offset="0"/>
   <stop stop-color="#a40000" offset="1"/>
  </linearGradient>
  <linearGradient id="a" x1="-1659.8" x2="-1602.7" y1="-51.118" y2="22.19" gradientUnits="userSpaceOnUse">
   <stop stop-color="#c00" offset="0"/>
   <stop stop-color="#a40000" offset="1"/>
  </linearGradient>
 </defs>
 <g transform="translate(-242.08 -397.54)">
  <path d="m390.41 479.05c-4.5467 0.075-7.8982 6.0421-10.982-1.3652-7.6418-7.6105-15.61-3.2132-17.253 4.5681-4.8679 8.2204-10.162 16.115-15.155 24.24l-26.061-8.27c-6.638-8.393-10.835 0.44918-11.288 6.3244l-16.746 57.093c19.444 17.469 32.306 40.507 46.936 61.643 7.9819 12.325 12.215 26.281 19.782 38.815 11.645-3.0282 29.703-8.3365 43.027-3.1414 7.3275-6.2331 9.753-15.303 16.175-22.452 10.844-14.021 20.864-28.866 32.883-41.79 9.5997-4.1019 7.6906-15.291 5.0096-25.185 0.14759-4.4313-6.0041-17.457-7.5894-9.1719 7.9566-3.2974 4.3291-8.1583-1.1061-13.819 1.7228-4.0678 4.9528-7.2398 7.3072-10.931-7.6737-9.9186-18.796-7.891-21.166 1.3233-10.575-7.7666 12.886-12.399 2.8858-19.159-4.7831-6.0255-13.349-3.9205-15.273-2.8384-5.1266-7.3754-15.671-7.2355-18.354-15.833-8.7385-3.8354 3.6345-10.787-6.8838-15.5-2.0418-1.5297-4.2031-2.8673-6.1491-4.5515z" fill="url(#c)"/>
  <g transform="translate(1959 626.1)">
   <path d="m-1666.8-97.206 96.198 72.148 24.93-117.3s-57.998-83.11-131.15-65.073l10.021 110.23z" fill="#f57900"/>
   <path d="m-1715.4-142.29c23-22.5 44.129-15.746 44.129-15.746l8.4819 80.873-52.611-65.128z" fill="#ce5c00"/>
   <g transform="matrix(.7715 .07478 -.07478 .7715 -532.7 -85.471)">
    <path d="m-1432.7-20.276-3.9375 4.7666h-0.25l-0.7187 44.249-5.0938 87.396 16.969 0.5786v-0.66125l0.5312 0.19286 3.6875-4.2982 1.625-70.782 4.1875-60.863-17-0.5786z" fill="#babdb6" opacity=".5"/>
    <g transform="translate(-7.0711 -6.364)" fill="#eac210">
     <path d="m-1433-19.638h17l-1.5 62 1.5 72-3.5 4.5-13.5-4.5-3.75-129 3.75-5z"/>
     <path d="m-1437-14.638h17l-1.75 60.75 1.75 73.25h-17l1.25-89-1.25-45z"/>
    </g>
   </g>
   <g transform="matrix(.7715 .07478 -.07478 .7715 -518.53 -89.604)">
    <path d="m-1469.5-33.004-3.9375 5.4062h-0.25l-0.7187 50.188-5.0938 99.125 16.969 0.65625v-0.75l0.5312 0.21875 3.6875-4.875 1.625-80.281 4.1875-69.031-17-0.65625z" fill="#babdb6" opacity=".5"/>
    <g transform="translate(-4.2426 7.0711)" fill="#eac210">
     <path d="m-1469.5-44.332 16.987 0.66108-4.1874 69.026-1.6233 80.285-3.6925 4.8781-13.295-5.5392 1.8467-143.89 3.964-5.4255z"/>
     <path d="m-1473.7-38.916 16.987 0.66108-4.383 67.624-1.4277 81.688-16.987-0.66108 5.1084-99.121 0.7023-50.191z"/>
    </g>
   </g>
   <g transform="matrix(.7715 .07478 -.07478 .7715 -503.19 -83.161)">
    <path d="m-1515.1654-28.09469-3.75,5h-.25l1.25,89-1.25,45h17l-.031-.6875 .5312.1875 3.5-4.5-1.5-72 1.5-62h-17z" fill="#babdb6" opacity=".5"/>
    <path d="m-1518-31.638h17l-1.5 62 1.5 72-3.5 4.5-13.5-4.5-3.75-129 3.75-5z" fill="#eac210"/>
    <path d="m-1522 107.36h17l-1.75-60.75 1.75-73.25h-17l1.25 89-1.25 45z" fill="#f0df8b"/>
   </g>
   <g transform="matrix(.7715 .07478 -.07478 .7715 -436.9 -56.912)">
    <path d="m-1563.4-32.941-4.0313 4.75h-0.25l-3.9687 88.906-3.875 44.875 16.969 0.96875 0.031-0.6875 0.5 0.21875 3.75-4.2812 2.7187-71.969 5.125-61.781-16.969-1z" fill="#babdb6" opacity=".5"/>
    <path d="m-1566.9-37.899 16.971 0.99655-5.1319 61.805-2.7233 71.964-3.7578 4.2871-13.213-5.2836 3.8186-129 4.0366-4.7716z" fill="#eac210"/>
    <path d="m-1579.1 100.63 16.971 0.99656 1.8142-60.748 6.041-73.021-16.971-0.99655-3.9694 88.92-3.8858 44.849z" fill="#f0df8b"/>
   </g>
   <g transform="matrix(.7715 .07478 -.07478 .7715 -479.75 -86.395)">
    <path d="m-1433-19.638h17l-1.5 62 1.5 72-3.5 4.5-13.5-4.5-3.75-129 3.75-5z" fill="#eac210"/>
    <path d="m-1437-14.638h17l-1.75 60.75 1.75 73.25h-17l1.25-89-1.25-45z" fill="#f0df8b"/>
   </g>
   <g transform="matrix(.7715 .07478 -.07478 .7715 -472.84 -72.509)" fill="#eac210">
    <path d="m-1469.5-44.332 16.987 0.66108-4.1874 69.026-1.6233 80.285-3.6925 4.8781-13.295-5.5392 1.8467-143.89 3.964-5.4255z"/>
    <path d="m-1473.7-38.916 16.987 0.66108-4.383 67.624-1.4277 81.688-16.987-0.66108 5.1084-99.121 0.7023-50.191z"/>
   </g>
   <g transform="matrix(.7715 .07478 -.07478 .7715 -453.69 -71.204)">
    <path d="m-1515.1654-28.09469-3.75,5h-.25l1.25,89-1.25,45h17l-.031-.6875 .5312.1875 3.5-4.5-1.5-72 1.5-62h-17z" fill="#babdb6" opacity=".5"/>
    <path d="m-1518-31.638h17l-1.5 62 1.5 72-3.5 4.5-13.5-4.5-3.75-129 3.75-5z" fill="#eac210"/>
    <path d="m-1522 107.36h17l-1.75-60.75 1.75-73.25h-17l1.25 89-1.25 45z" fill="#eac210"/>
   </g>
   <g transform="matrix(.7715 .07478 -.07478 .7715 -407.83 -146.6)">
    <path d="m-1531.9 105.8-17 0.53125-3.5938 5.0938v0.0312h-0.25l4 88.906 0.125 45.031 17-0.53125-0.031-0.6875 0.5 0.15625 3.375-4.5938-3.7188-71.906-0.4062-62.031z" fill="#babdb6" opacity=".5188"/>
    <g transform="translate(-.8995 61.397)">
     <path d="m-1553.6 42.095 16.992-0.52331 0.4093 62.017 3.7156 71.92-3.3598 4.6056-13.632-4.0823-7.7191-128.82 3.5943-5.1131z" fill="#eac210"/>
     <path d="m-1553.4 181.15 16.992-0.5233-3.6192-60.667-0.5056-73.269-16.992 0.52331 3.9891 88.919 0.1358 45.017z" fill="#f0df8b"/>
    </g>
   </g>
   <g transform="matrix(.7715 .07478 -.07478 .7715 -553.96 -127.45)">
    <path d="m-1392.7 51.134-3.8125 4.9688h-0.25l2.9687 38.844-2.4374 50.156-1.625 45 17 0.125v-0.65625l0.5 0.1875 3.5312-4.4688-0.9062-72.031 0.031-17.062 2-44.906-17-0.15625z" fill="#babdb6" opacity=".5"/>
    <g transform="matrix(.99924 .03898 -.03898 .99924 157.17 66.803)">
     <path d="m-1553.6 42.095 16.992-0.52331-0.2424 44.966 0.6517 17.051 3.7156 71.92-3.3598 4.6056-13.632-4.0823-2.1141-89.432-5.605-39.391 3.5943-5.1131z" fill="#eac210"/>
     <path d="m-1553.4 181.15 16.992-0.5233-3.6192-60.667 1.2823-32.598-1.7879-40.671-16.992 0.52331 4.4842 38.693-0.4951 50.226 0.1358 45.017z" fill="#f0df8b"/>
    </g>
   </g>
   <g transform="matrix(.75264 .18528 -.18528 .75264 -536.91 28.225)">
    <path d="m-1362.4 68.138-4.5331-4.8529-0.2494 0.0171 5.6221 38.549 1.0036 50.205 1.4608 45.006 16.969-1.0396-0.045-0.65471 0.5117 0.15282 3.2168-4.7001-5.8375-71.8-1.1375-17.025-2.1431-26.356-15.908-17.573 1.0699 10.071z" fill="#babdb6" opacity=".5"/>
    <g transform="matrix(.99974 -.02282 .02282 .99974 184.56 -24.48)">
     <path d="m-1553.6 42.095 16.992-0.52331-0.2424 44.966 0.6517 17.051 3.7156 71.92-3.3598 4.6056-13.632-4.0823-2.1141-89.432-5.605-39.391 3.5943-5.1131z" fill="#eac210"/>
     <path d="m-1553.4 181.15 16.992-0.5233-3.6192-60.667 1.2823-32.598-1.7879-40.671-16.992 0.52331 4.4842 38.693-0.4951 50.226 0.1358 45.017z" fill="#ecd66b"/>
    </g>
   </g>
   <g transform="matrix(.7715 .07478 -.07478 .7715 -387.86 -41.161)">
    <path d="m-1563.4-32.941-4.0313 4.75h-0.25l-3.9687 88.906-3.875 44.875 16.969 0.96875 0.031-0.6875 0.5 0.21875 3.75-4.2812 2.7187-71.969 5.125-61.781-16.969-1z" fill="#babdb6" opacity=".5"/>
    <path d="m-1566.9-37.899 16.971 0.99655-5.1319 61.805-2.7233 71.964-3.7578 4.2871-13.213-5.2836 3.8186-129 4.0366-4.7716z" fill="#eac210"/>
    <path d="m-1579.1 100.63 16.971 0.99656 1.8142-60.748 6.041-73.021-16.971-0.99655-3.9694 88.92-3.8858 44.849z" fill="#f0df8b"/>
   </g>
   <g transform="matrix(.75264 .18528 -.18528 .75264 -618.74 9.0033)">
    <path d="m-1363.5 58.067-3.4632 5.2182-0.2494 0.0171 5.6221 38.549 1.0036 50.205 1.4608 45.006 16.969-1.0396-0.045-0.65471 0.5117 0.15282 3.2168-4.7001-5.8375-71.8-1.1375-17.025-1.0803-44.938-16.971 1.0084z" fill="#babdb6" opacity=".5"/>
    <g transform="matrix(.99974 -.02282 .02282 .99974 184.56 -24.48)">
     <path d="m-1553.6 42.095 16.992-0.52331-0.2424 44.966 0.6517 17.051 3.7156 71.92-3.3598 4.6056-13.632-4.0823-2.1141-89.432-5.605-39.391 3.5943-5.1131z" fill="#eac210"/>
     <path d="m-1553.4 181.15 16.992-0.5233-3.6192-60.667 1.2823-32.598-1.7879-40.671-16.992 0.52331 4.4842 38.693-0.4951 50.226 0.1358 45.017z" fill="#f0df8b"/>
    </g>
   </g>
   <path d="m-1563.6 19.008s-19.023-7.5062-34.07 18.57l-5-120.76s27.748-32.284 49.748-24.284l-10.678 126.47z" fill="url(#b)"/>
   <path d="m-1555.1-75.637-1.1254 8.0498c-26.184-10.724-46.599 34.671-46.599 34.671v-15.568s22.401-36.13 47.725-27.153z" fill="#b39400"/>
   <path d="m-1682.2-139.73c1.865-0.24997-0.278-13.421 1.5694-13.516 2.8185 2.399 6.8259 4.2402 9.7043 6.6228 0.3649 0.30197-0.7643 2.3346-0.3862 2.5928 3.8715 2.6441 8.966 3.5522 13.463 5.6924 1.0235 0.48714 1.4927 2.0848 2.4755 2.6491 3.8163 2.1909 7.9119 3.7316 11.656 5.4176 0.443 0.19946 0.1341-1.8458 0.573-1.6352 2.9591 1.42 5.6917 3.3893 8.8283 4.4615 1.0878 0.37182 0.6751 2.2456 1.1368 2.4964 7.6301 4.1443 17.034 9.7269 24.597 14.276 0.7491 0.45056 0.9118-3.4196 1.676-2.9619l9.9753 5.9743c1.3563 0.81233 2.5838-0.10302 3.3496 1.9839 0.4897 1.3343-1.4318 6.749 0.5277 6.3684l11.192-2.1737-20.521 18.485-79.817-56.733z" fill="#2e3436" opacity=".20677"/>
   <path d="m-1706.9-33.075c59.5 20 109.71 71.152 109.71 71.152l-5.5-121.26s-38.078-61.126-114.23-60.124l10.021 110.23z" fill="url(#a)"/>
   <path d="m-1712.6-113.06 1.0648 10.025c62.708-1.1208 111.42 66.415 111.42 66.415l-1-14.318s-45.934-63.124-111.48-62.122z" fill="#edd400"/>
   <path d="m-1566.9-164.13c1.865-0.24997 2.1969 2.4893 4.0443 2.3935l-3.0548 53.178-12.036 5.0503 11.046-60.622z" fill="#2e3436" opacity=".20677"/>
  </g>
 </g>
</svg>
